<svg xmlns="http://www.w3.org/2000/svg" width="44" height="44" viewBox="0 0 44 44" fill="none" stroke="#16130F">
  <circle cx="22" cy="22" r="16" stroke-width="1"/>
  <circle cx="22" cy="22" r="11" stroke-width="0.6" opacity="0.7"/>
  <g stroke-width="0.5" opacity="0.6">
    <line x1="22"    y1="11"    x2="22"    y2="6"/>
    <line x1="27.5"  y1="12.47" x2="30"    y2="8.14"/>
    <line x1="31.53" y1="16.5"  x2="35.86" y2="14"/>
    <line x1="33"    y1="22"    x2="38"    y2="22"/>
    <line x1="31.53" y1="27.5"  x2="35.86" y2="30"/>
    <line x1="27.5"  y1="31.53" x2="30"    y2="35.86"/>
    <line x1="22"    y1="33"    x2="22"    y2="38"/>
    <line x1="16.5"  y1="31.53" x2="14"    y2="35.86"/>
    <line x1="12.47" y1="27.5"  x2="8.14"  y2="30"/>
    <line x1="11"    y1="22"    x2="6"     y2="22"/>
    <line x1="12.47" y1="16.5"  x2="8.14"  y2="14"/>
    <line x1="16.5"  y1="12.47" x2="14"    y2="8.14"/>
  </g>
  <circle cx="22" cy="22" r="1.4" fill="#16130F" stroke="none"/>
  <circle cx="31" cy="16" r="1.4" fill="#16130F" stroke="none"/>
</svg>
